<svg width="113" height="36" viewBox="0 0 113 36" fill="none" xmlns="http://www.w3.org/2000/svg">
<path fill-rule="evenodd" clip-rule="evenodd" d="M27.8333 18C27.8333 25.0877 22.0877 30.8333 15 30.8333C7.91234 30.8333 2.16666 25.0877 2.16666 18C2.16666 10.9123 7.91234 5.16666 15 5.16666C22.0877 5.16666 27.8333 10.9123 27.8333 18ZM30 18C30 26.2843 23.2843 33 15 33C6.71573 33 0 26.2843 0 18C0 9.71573 6.71573 3 15 3C23.2843 3 30 9.71573 30 18ZM23.2759 11.2759C23.2759 12.1329 22.5812 12.8276 21.7242 12.8276C20.8672 12.8276 20.1725 12.1329 20.1725 11.2759C20.1725 10.4189 20.8672 9.72418 21.7242 9.72418C22.5812 9.72418 23.2759 10.4189 23.2759 11.2759ZM10.4879 19.209C11.1556 21.7009 13.717 23.1797 16.2089 22.512C18.7008 21.8443 20.1796 19.2829 19.5119 16.791C18.8442 14.2991 16.2828 12.8203 13.7909 13.488C11.299 14.1557 9.82015 16.7171 10.4879 19.209ZM8.39503 19.7698C9.37244 23.4175 13.1219 25.5823 16.7696 24.6049C20.4174 23.6274 22.5821 19.878 21.6047 16.2302C20.6273 12.5825 16.8779 10.4177 13.2301 11.3952C9.58236 12.3726 7.41762 16.122 8.39503 19.7698Z" fill="url(#paint0_linear_20902_1103)"/>
<path d="M46.7369 28.3958C45.2101 28.3958 43.8623 28.1225 42.6936 27.5759C41.5249 27.0292 40.6107 26.247 39.951 25.2291C39.2912 24.2112 38.9613 22.9859 38.9613 21.5533V20.7616H42.6371V21.5533C42.6371 22.7409 43.0047 23.6362 43.7398 24.2394C44.475 24.8238 45.474 25.116 46.7369 25.116C48.0187 25.116 48.9707 24.8615 49.5927 24.3525C50.2336 23.8436 50.5541 23.1933 50.5541 22.4016C50.5541 21.8549 50.3938 21.4119 50.0734 21.0727C49.7718 20.7334 49.3194 20.46 48.7162 20.2527C48.1318 20.0265 47.4155 19.8191 46.5673 19.6306L45.917 19.4893C44.5598 19.1877 43.3911 18.8107 42.4109 18.3583C41.4495 17.887 40.705 17.2744 40.1772 16.5204C39.6682 15.7664 39.4137 14.7862 39.4137 13.5798C39.4137 12.3734 39.6965 11.3461 40.262 10.4978C40.8463 9.63074 41.6569 8.97099 42.6936 8.5186C43.7492 8.04735 44.9839 7.81172 46.3976 7.81172C47.8114 7.81172 49.0649 8.05677 50.1582 8.54687C51.2704 9.01812 52.1374 9.73442 52.7595 10.6958C53.4004 11.6383 53.7208 12.8258 53.7208 14.2584V15.1066H50.0451V14.2584C50.0451 13.5044 49.8943 12.9012 49.5927 12.4488C49.31 11.9776 48.8953 11.6383 48.3486 11.4309C47.802 11.2047 47.1516 11.0916 46.3976 11.0916C45.2666 11.0916 44.4278 11.3084 43.8812 11.7419C43.3534 12.1566 43.0895 12.7316 43.0895 13.4667C43.0895 13.9568 43.212 14.3715 43.4571 14.7108C43.721 15.0501 44.1074 15.3328 44.6163 15.559C45.1253 15.7852 45.7756 15.9832 46.5673 16.1528L47.2176 16.2942C48.6314 16.5958 49.8566 16.9822 50.8934 17.4535C51.9489 17.9247 52.7689 18.5468 53.3533 19.3196C53.9376 20.0925 54.2298 21.0821 54.2298 22.2885C54.2298 23.4949 53.9188 24.5599 53.2967 25.4835C52.6935 26.3883 51.8264 27.1046 50.6954 27.6324C49.5833 28.1414 48.2638 28.3958 46.7369 28.3958ZM62.9511 28.3958C61.5562 28.3958 60.3026 28.1131 59.1905 27.5476C58.0783 26.9821 57.2018 26.1621 56.5609 25.0877C55.92 24.0132 55.5996 22.722 55.5996 21.214V20.7616C55.5996 19.2536 55.92 17.9624 56.5609 16.888C57.2018 15.8135 58.0783 14.9935 59.1905 14.428C60.3026 13.8626 61.5562 13.5798 62.9511 13.5798C64.3459 13.5798 65.5995 13.8626 66.7116 14.428C67.8238 14.9935 68.7003 15.8135 69.3412 16.888C69.9821 17.9624 70.3025 19.2536 70.3025 20.7616V21.214C70.3025 22.722 69.9821 24.0132 69.3412 25.0877C68.7003 26.1621 67.8238 26.9821 66.7116 27.5476C65.5995 28.1131 64.3459 28.3958 62.9511 28.3958ZM62.9511 25.2291C64.0443 25.2291 64.9491 24.8803 65.6654 24.1829C66.3817 23.4666 66.7399 22.4487 66.7399 21.1292V20.8465C66.7399 19.527 66.3817 18.5185 65.6654 17.821C64.968 17.1047 64.0632 16.7466 62.9511 16.7466C61.8578 16.7466 60.953 17.1047 60.2367 17.821C59.5204 18.5185 59.1622 19.527 59.1622 20.8465V21.1292C59.1622 22.4487 59.5204 23.4666 60.2367 24.1829C60.953 24.8803 61.8578 25.2291 62.9511 25.2291ZM72.6297 28V8.20757H79.557L82.9783 25.4553H83.4872L86.9085 8.20757H93.8359V28H90.2167V10.9502H89.7077L86.3147 28H80.1508L76.7578 10.9502H76.2489V28H72.6297ZM95.3581 28L100.561 8.20757H107.064L112.266 28H108.421L107.347 23.6457H100.278L99.2034 28H95.3581ZM101.154 20.1961H106.47L104.067 10.5544H103.558L101.154 20.1961Z" fill="white"/>
<defs>
<linearGradient id="paint0_linear_20902_1103" x1="15" y1="3" x2="15" y2="33" gradientUnits="userSpaceOnUse">
<stop stop-color="#877EFF"/>
<stop offset="0.461458" stop-color="#685DFF"/>
<stop offset="1" stop-color="#3121FF"/>
</linearGradient>
</defs>
</svg>
